<?xml version="1.0" encoding="UTF-8"?>
<svg width="201px" height="32px" viewBox="0 0 201 32" version="1.1" xmlns="http://www.w3.org/2000/svg" xmlns:xlink="http://www.w3.org/1999/xlink">
    <!-- Generator: sketchtool 41.2 (35397) - http://www.bohemiancoding.com/sketch -->
    <title>C7FC2BD2-0E6D-41D9-8A2E-5C4ABC4A359B</title>
    <desc>Created with sketchtool.</desc>
    <defs>
        <linearGradient x1="20.1226391%" y1="2.53586042%" x2="53.2918552%" y2="100%" id="linearGradient-1">
            <stop stop-color="#55AFEF" offset="0%"></stop>
            <stop stop-color="#376EFF" offset="100%"></stop>
        </linearGradient>
    </defs>
    <g id="Main-site" stroke="none" stroke-width="1" fill="none" fill-rule="evenodd">
        <g id="Main-page-final" transform="translate(-50.000000, -26.000000)">
            <g id="logo" transform="translate(50.000000, 26.000000)">
                <g id="Group-13">
                    <g id="Page-1-Copy-2" transform="translate(47.448276, 6.620690)" fill="#FFFFFF">
                        <path d="M122.827754,2.51641157 C125.578261,0.173563074 129.655791,-0.28627787 132.95817,1.07964581 C134.549903,1.77478364 135.945239,2.92533477 136.894016,4.38613623 C135.815572,5.19607616 134.735547,6.00316976 133.655838,6.81184465 C132.975564,5.63694155 131.774096,4.78715296 130.468261,4.44369542 C128.792403,4.06797943 126.890737,4.33521849 125.566243,5.4914623 C124.503612,6.26250234 123.888804,7.49211829 123.617453,8.75114635 C123.287595,10.3909505 123.660465,12.1563096 124.632013,13.518122 C125.399258,14.4378039 126.412236,15.2034675 127.593465,15.4839894 C128.932822,15.8075226 130.405642,15.6952506 131.632411,15.043124 C132.424957,14.5633588 133.186826,13.9659451 133.642555,13.1427222 C134.731752,13.9431744 135.820949,14.7423615 136.907299,15.54566 C135.941127,17.0118379 134.53662,18.1718768 132.928758,18.8708097 C130.806342,19.7474803 128.38348,19.854376 126.181051,19.2180624 C123.982416,18.5953479 122.055133,17.0972279 120.884657,15.1367368 C119.987746,13.5744161 119.457063,11.78344 119.495963,9.97506963 C119.455798,7.16858508 120.669285,4.33142338 122.827754,2.51641157" id="Fill-1"></path>
                        <path d="M0,0.606585234 C1.35643591,0.605320197 2.71445311,0.605320197 4.07088902,0.606585234 C5.42068348,4.7818398 6.7692129,8.95804315 8.11900737,13.1345627 C9.45551894,8.95804315 10.7891842,4.7818398 12.1285421,0.605320197 C13.4647374,0.605320197 14.7999839,0.605320197 16.1364955,0.606585234 C14.1171802,6.85049153 12.0937536,13.0918678 10.074122,19.335774 C8.74583319,19.3316627 7.4172281,19.3506382 6.0902043,19.3262863 C4.07500039,13.0811149 2.02595673,6.84796146 0,0.606585234" id="Fill-4"></path>
                        <path d="M19.0249228,0.606585234 C20.357323,0.605320197 21.6897232,0.605320197 23.0208584,0.606585234 C23.0224397,6.84922649 23.0208584,13.0931328 23.0224397,19.335774 C21.6897232,19.3386204 20.357323,19.3370391 19.0249228,19.3370391 C19.0249228,13.0931328 19.0236578,6.84922649 19.0249228,0.606585234" id="Fill-6"></path>
                        <path d="M31.5599846,4.50239313 L31.5599846,15.4399029 C32.7348877,15.42662 33.9148509,15.494932 35.0815313,15.3358536 C36.296283,15.1166859 37.3763084,14.4070002 38.1796068,13.4847882 C39.708404,11.4853973 39.6922748,8.48757589 38.1754955,6.48438983 C37.3763084,5.56091283 36.3057708,4.82972145 35.0856426,4.62004157 C33.9227574,4.4141568 32.7348877,4.53433532 31.5599846,4.50239313 M27.564049,0.606711738 C29.7557256,0.609241812 31.9489834,0.598488997 34.14066,0.612088145 C36.2374588,0.629166144 38.3371039,1.32841534 39.9636252,2.66619195 C43.2191979,5.28829736 44.2150983,10.1770328 42.4990756,13.9446292 C41.511398,16.2925378 39.4316772,18.1423382 36.9967973,18.8773246 C35.7804642,19.2970007 34.4787411,19.3384306 33.2051652,19.3371656 C31.3246877,19.3359006 29.4442102,19.3384306 27.564049,19.3371656 C27.564049,13.0932593 27.5624677,6.849353 27.564049,0.606711738" id="Fill-8"></path>
                        <path d="M50.5996451,13.0209941 C51.9975109,13.0235241 53.3969581,13.0235241 54.796089,13.0209941 C54.0971561,10.8505068 53.4007532,8.67875461 52.7030853,6.5082674 C52.0003573,8.67875461 51.299843,10.8505068 50.5996451,13.0209941 M50.6998993,0.606553608 C52.068353,0.605288571 53.4383881,0.605288571 54.8081069,0.605288571 C56.8261571,6.84919487 58.8429423,13.0931012 60.8597275,19.3357424 C59.5153095,19.3385888 58.1705752,19.3370075 56.8261571,19.3370075 C56.5617644,18.5150497 56.3008505,17.6905618 56.0364578,16.868604 L49.3580113,16.868604 C49.0948836,17.6918269 48.8314396,18.5137846 48.5683119,19.3370075 L44.6217128,19.3370075 C46.6476695,13.0931012 48.6723612,6.84919487 50.6998993,0.606553608" id="Fill-10"></path>
                        <path d="M63.7601727,0.606585234 L67.7576896,0.606585234 L67.7576896,15.4400927 L76.8504592,15.4413577 L76.8504592,19.3370391 C71.9604587,19.3370391 63.7601727,19.335774 63.7601727,19.335774 L63.7601727,0.606585234 Z" id="Fill-12"></path>
                        <path d="M75.695765,0.605256945 L80.004481,0.605256945 C80.004481,0.605256945 82.7268406,6.0594639 84.0902342,8.7856186 C85.4533115,6.0594639 88.1756711,0.605256945 88.1756711,0.605256945 L92.4322043,0.605256945 C92.4322043,0.605256945 88.1715598,8.99972611 86.0842487,13.2148293 C86.0494602,15.2543852 86.0788723,17.2964712 86.0693846,19.3357108 C84.732873,19.3372921 83.3963614,19.3372921 82.0601661,19.3372921 C82.0614311,17.4647211 82.0560547,15.5937314 82.0626962,13.7211604 C82.0560547,13.5301398 82.0813555,13.3258363 81.9811013,13.1531588 C79.8855675,8.97157904 75.695765,0.605256945 75.695765,0.605256945" id="Fill-14"></path>
                        <path d="M94.1941162,0.606585234 L108.877717,0.606585234 L108.879298,4.50100159 L103.541474,4.50226663 L103.541474,19.335774 C102.204963,19.3386204 100.868451,19.3370391 99.5319398,19.3370391 L99.5319398,4.50226663 L94.1941162,4.50226663 L94.1941162,0.606585234 Z" id="Fill-16"></path>
                        <path d="M112.104447,0.606585234 C113.436847,0.605320197 114.769247,0.605320197 116.101963,0.606585234 L116.101963,19.3370391 C114.769247,19.3370391 113.436847,19.3370391 112.104447,19.335774 C112.105712,13.0931328 112.103182,6.84922649 112.104447,0.606585234" id="Fill-18"></path>
                        <path d="M146.673701,7.92238899 C145.599368,7.78608126 144.371018,7.87969399 143.493082,7.13521973 C142.752719,6.47898179 142.993076,5.21204725 143.774869,4.69622842 C144.644898,4.05991482 145.791654,4.06529123 146.810009,4.24176389 C147.716092,4.4356308 148.615849,5.15986448 148.656963,6.14343073 L148.660125,6.14343073 L152.304064,4.26421829 C151.891979,3.12979638 151.107656,2.1285196 150.080446,1.48588082 C148.453924,0.431472489 146.423856,0.156326945 144.530096,0.412813194 C142.787191,0.648110073 141.087298,1.53553352 140.079696,3.00550649 C139.478171,3.92234205 139.094865,5.00236737 139.083795,6.10611214 C138.978481,7.83288763 139.805815,9.62386374 141.26377,10.5792829 C142.534816,11.4319178 144.105044,11.6030141 145.592727,11.7352105 C146.500075,11.8528589 147.501035,11.8101639 148.281563,12.3636176 C148.928313,12.7949952 149.12218,13.7051893 148.800228,14.3962158 C148.514014,15.1378437 147.730956,15.5363303 146.994704,15.6925624 C145.932073,15.8731464 144.760016,15.8127409 143.832428,15.2140622 C143.250511,14.8810412 142.911481,14.225752 142.876376,13.5676165 L139.23813,15.4439826 C139.441801,16.0252671 139.737187,16.575242 140.106262,17.0663926 C141.223606,18.5031583 142.982639,19.3276462 144.763812,19.5468138 C146.652512,19.7795806 148.679734,19.5003237 150.284749,18.4231447 C151.940683,17.364625 152.929625,15.4025527 152.900213,13.4499681 C152.955242,12.0827794 152.388506,10.719702 151.457122,9.73328944 C150.211377,8.46508986 148.39257,8.02517325 146.673701,7.92238899" id="Fill-20"></path>
                    </g>
                    <g id="Page-1" fill="url(#linearGradient-1)">
                        <path d="M0,-7.44186047e-05 L20.954536,31.8349023 L37.8301541,5.87304186 L18.3886744,5.87304186 L20.6374575,9.22187907 L31.638692,9.22187907 L20.9365457,25.6860651 L4.02944456,-7.44186047e-05 L0,-7.44186047e-05 Z M7.2739139,-7.44186047e-05 L20.9489515,20.9413209 L26.9254674,11.7469023 L22.9108274,11.7469023 L20.9423925,14.7753674 L13.4331435,3.34876279 L39.2836551,3.34876279 L41.5324382,-7.44186047e-05 L7.2739139,-7.44186047e-05 Z" id="Combined-Shape"></path>
                    </g>
                </g>
            </g>
        </g>
    </g>
</svg>
